# xmcd
#
# Track frame offsets:
#	150
#	17538
#	31624
#	47119
#	66257
#	83633
#	103220
#	121524
#	141759
#	159421
#	177365
#	195873
#	214399
#
# Disc length: 3102 seconds
#
# Revision: 1
# Processed by: cddbd v1.5.2PL0 Copyright (c) Steve Scherf et al.
# Submitted via: audiograbber 1.83.01
#
DISCID=a20c1c0d
DTITLE=Lori McKenna - Lorraine
DYEAR=2011
DGENRE=Country
TTITLE0=The Luxury of Knowing
TTITLE1=The Most
TTITLE2=If He Tried
TTITLE3=Lorraine
TTITLE4=You Get a Love Song
TTITLE5=Rocket Science
TTITLE6=Buy This Town
TTITLE7=All I Ever Do
TTITLE8=That's How You Know
TTITLE9=Sweet Disposition
TTITLE10=American Revolver
TTITLE11=Ladders and Parachutes
TTITLE12=Still Down Here
EXTD=
EXTT0=
EXTT1=
EXTT2=
EXTT3=
EXTT4=
EXTT5=
EXTT6=
EXTT7=
EXTT8=
EXTT9=
EXTT10=
EXTT11=
EXTT12=
PLAYORDER=
